<svg width="512" height="512" viewBox="0 0 512 512" fill="none" xmlns="http://www.w3.org/2000/svg" role="img" aria-labelledby="title desc">
  <title id="title">OHIP Code Search symbol</title>
  <desc id="desc">Simple blue and white medical logo symbol with a cross and magnifying glass.</desc>
  <defs>
    <linearGradient id="bgGradient" x1="76" y1="68" x2="430" y2="442" gradientUnits="userSpaceOnUse">
      <stop stop-color="#1F4E79"/>
      <stop offset="1" stop-color="#163D5E"/>
    </linearGradient>
    <filter id="softShadow" x="34" y="34" width="444" height="444" filterUnits="userSpaceOnUse" color-interpolation-filters="sRGB">
      <feFlood flood-opacity="0" result="BackgroundImageFix"/>
      <feColorMatrix in="SourceAlpha" type="matrix" values="0 0 0 0 0 0 0 0 0 0 0 0 0 0 0 0 0 0 127 0" result="hardAlpha"/>
      <feOffset dy="12"/>
      <feGaussianBlur stdDeviation="16"/>
      <feColorMatrix type="matrix" values="0 0 0 0 0.0862745 0 0 0 0 0.239216 0 0 0 0 0.368627 0 0 0 0.18 0"/>
      <feBlend mode="normal" in2="BackgroundImageFix" result="effect1_dropShadow_1_1"/>
      <feBlend mode="normal" in="SourceGraphic" in2="effect1_dropShadow_1_1" result="shape"/>
    </filter>
  </defs>

  <rect width="512" height="512" rx="112" fill="white"/>

  <g filter="url(#softShadow)">
    <rect x="72" y="72" width="368" height="368" rx="92" fill="url(#bgGradient)"/>
    <circle cx="220" cy="212" r="88" fill="white"/>
    <path d="M203 152C203 146.477 207.477 142 213 142H227C232.523 142 237 146.477 237 152V188H273C278.523 188 283 192.477 283 198V212C283 217.523 278.523 222 273 222H237V258C237 263.523 232.523 268 227 268H213C207.477 268 203 263.523 203 258V222H167C161.477 222 157 217.523 157 212V198C157 192.477 161.477 188 167 188H203V152Z" fill="#163D5E"/>
    <circle cx="220" cy="212" r="86" stroke="#BDD7EE" stroke-width="10"/>
    <path d="M284 276L348 340" stroke="white" stroke-width="34" stroke-linecap="round"/>
    <circle cx="220" cy="212" r="100" stroke="white" stroke-width="18"/>
  </g>
</svg>
